# xmcd
#
# Track frame offsets: 
#        150
#        18976
#        31337
#        48542
#        59062
#        74382
#        82954
#        93511
#        105381
#        113663
#        125906
#        135521
#        147605
#        158201
#        169331
#        179852
#        193520
#        206357
#        221043
#        234250
#        252604
#        262809
#        273162
#        280383
#        294858
#
# Disc length: 4078 seconds
#
# Revision: 0
# Processed by: cddbd v1.5.2PL0 Copyright (c) Steve Scherf et al.
# Submitted via: ExactAudioCopy v1.1
#
DISCID=7e0fec19
DTITLE=Various Artist - A Country Christmas - CD 2
DYEAR=2013
DGENRE=Country
TTITLE0=Johnny Cash - The First Noel
TTITLE1=Moe Bandy - Away In A Manger
TTITLE2=Glen Campbell - Do You Hear What I Hear?
TTITLE3=Jim Reeves - Senor Santa Claus
TTITLE4=Johnny Paycheck - Christmas Is
TTITLE5=Gene Autry - Santas Comin In A Whirlybird
TTITLE6=Eddy Arnold - Will Santa Come to Shanty Town
TTITLE7=Faron Young - Winter Wonderland
TTITLE8=Glen Campbell - Jingle Bell Rock
TTITLE9=Jimmy Sturr - Church Bells Are Ringing
TTITLE10=Chet Atkins - Silver Bells
TTITLE11=Johnny Cash - Joy To The World
TTITLE12=Glen Campbell - Let It Snow! Let It Snow! Let It Snow!
TTITLE13=Eddy Arnold - C-H-R-I-S-T-M-A-S
TTITLE14=Dave Dudley - All I Want For Christmas Is You For Me
TTITLE15=The Louvin Brothers - The Friendly Beast
TTITLE16=Glen Campbell - Sleigh Ride
TTITLE17=Johnny Cash - O Come All Ye Faithful
TTITLE18=Dave Dudley - Old Time Merry Christmas
TTITLE19=Dave Dudley - Reverend Nicholas
TTITLE20=George Jones - New Baby for Christmas
TTITLE21=Eddy Arnold - Jolly Old St Nicholas
TTITLE22=Glen Campbell - Here Comes Santa Claus
TTITLE23=Connie Smith - O Holy Night
TTITLE24=Chet Atkins - The Little Drummer Boy
EXTD=
EXTT0=
EXTT1=
EXTT2=
EXTT3=
EXTT4=
EXTT5=
EXTT6=
EXTT7=
EXTT8=
EXTT9=
EXTT10=
EXTT11=
EXTT12=
EXTT13=
EXTT14=
EXTT15=
EXTT16=
EXTT17=
EXTT18=
EXTT19=
EXTT20=
EXTT21=
EXTT22=
EXTT23=
EXTT24=
PLAYORDER=
